<?xml version="1.0" standalone="no"?>
<!DOCTYPE svg PUBLIC "-//W3C//DTD SVG 20010904//EN"
 "http://www.w3.org/TR/2001/REC-SVG-20010904/DTD/svg10.dtd">
<svg version="1.0" xmlns="http://www.w3.org/2000/svg"
 width="400.000000pt" height="400.000000pt" viewBox="0 0 400.000000 400.000000"
 preserveAspectRatio="xMidYMid meet">

<g transform="translate(0.000000,400.000000) scale(0.100000,-0.100000)"
fill="#000000" stroke="none">
<path d="M2942 2388 c-7 -7 -12 -27 -12 -45 0 -41 34 -60 75 -41 14 6 28 8 31
5 14 -14 -8 -58 -39 -74 -29 -16 -72 -18 -439 -21 l-408 -3 0 -369 0 -370 37
-23 37 -24 27 36 c41 56 107 111 168 139 81 38 212 43 295 12 148 -56 221
-198 220 -425 -3 -278 -123 -454 -323 -472 -57 -5 -61 -4 -61 16 0 13 6 21 17
21 15 0 15 1 -1 13 -16 12 -19 31 -21 130 -3 126 -5 133 -61 168 -19 11 -34
25 -34 29 0 5 21 10 48 12 34 2 47 7 47 18 0 12 -15 16 -65 18 l-65 3 -34 65
c-19 36 -43 72 -55 79 -67 44 -439 68 -651 41 -71 -9 -147 -21 -167 -26 -46
-13 -78 -51 -128 -149 -26 -53 -48 -82 -70 -95 -18 -10 -42 -28 -53 -39 -11
-11 -17 -13 -15 -6 2 8 23 28 46 44 22 17 44 38 47 47 4 10 12 24 19 30 6 7
24 35 39 62 l27 49 0 318 c0 348 -1 351 -53 280 -16 -21 -60 -63 -98 -92 l-69
-54 0 -267 0 -268 -216 0 c-249 0 -234 -14 -122 115 166 191 315 462 419 764
43 126 44 131 26 131 -7 0 -23 -31 -36 -72 -93 -293 -236 -555 -432 -797 -46
-57 -90 -112 -98 -122 -17 -24 -81 -27 -81 -4 0 9 32 55 71 103 225 278 441
680 482 900 l7 32 -148 0 -148 0 -12 -102 c-35 -293 -197 -681 -388 -930 -24
-31 -44 -66 -44 -77 0 -21 2 -21 360 -21 l360 0 0 -35 0 -35 -351 0 c-311 0
-350 -2 -339 -15 11 -13 62 -15 351 -15 l339 0 0 -93 0 -93 -77 -62 -76 -62
91 0 92 0 0 -35 0 -35 -76 0 c-56 0 -75 -3 -72 -12 3 -9 30 -14 76 -16 51 -2
72 -7 72 -16 0 -7 8 -20 18 -29 15 -14 40 -17 120 -17 89 0 105 3 122 20 12
12 18 25 15 30 -4 6 35 10 101 10 l107 0 -23 25 -23 25 295 0 c317 0 328 -2
315 -51 -4 -13 2 -28 15 -41 19 -19 27 -20 242 -13 246 8 319 21 433 77 99 48
211 162 258 259 60 127 80 282 54 425 -16 92 -79 212 -145 277 -73 73 -92 74
-25 1 56 -61 111 -167 132 -254 8 -30 13 -100 13 -155 -1 -168 -45 -292 -142
-397 -117 -127 -254 -186 -449 -195 l-113 -6 0 37 0 36 68 0 c217 1 422 113
511 279 80 151 82 376 4 540 -64 135 -194 237 -353 277 -95 24 -297 16 -364
-14 -27 -12 -50 -22 -52 -22 -2 0 -4 56 -4 125 l0 125 249 0 c136 0 272 5 301
10 111 21 212 86 251 161 26 52 26 150 -1 204 -11 22 -17 31 -14 20 17 -50 16
-137 -1 -180 -23 -63 -93 -129 -163 -156 -53 -21 -76 -23 -354 -27 l-298 -4 0
-147 0 -147 -30 -22 c-16 -12 -34 -22 -40 -22 -7 0 -10 65 -8 203 l3 202 315
6 c337 6 376 11 451 62 56 37 79 81 79 149 0 66 -16 106 -56 137 -29 23 -83
28 -102 9z m-847 -1089 c177 -19 191 -24 230 -82 19 -29 37 -64 40 -79 6 -24
4 -27 -27 -30 -18 -2 -60 1 -93 5 -66 9 -442 13 -517 6 -85 -9 -63 -19 40 -19
l102 0 0 -35 0 -35 -107 -2 -108 -1 110 -11 110 -12 -126 -8 c-70 -4 -146 -13
-170 -20 -40 -12 -46 -18 -64 -64 -11 -28 -25 -53 -30 -56 -19 -7 -176 11
-187 22 -14 14 -1 88 20 108 13 14 33 16 113 12 l98 -5 -40 45 c-21 25 -39 51
-39 59 0 8 -8 13 -17 12 -10 -1 -22 -1 -26 0 -17 2 66 142 94 156 34 18 132
33 274 43 120 8 169 7 320 -9z m23 -236 l3 -33 -105 0 -106 0 0 35 0 36 103
-3 102 -3 3 -32z m348 -88 c9 -12 14 -36 12 -60 -4 -47 -17 -52 -124 -54 l-72
-1 -16 48 c-10 26 -18 54 -19 62 -3 20 43 29 131 27 61 -2 77 -6 88 -22z
m-598 -172 l-3 -28 -100 0 -100 0 -3 28 -3 27 106 0 106 0 -3 -27z m247 -3 l0
-25 -100 0 -100 0 -3 28 -3 28 103 -3 c102 -3 103 -3 103 -28z m-691 -36 c8
-20 -11 -44 -34 -44 -20 0 -32 23 -24 45 8 20 50 19 58 -1z m986 1 c10 -12 10
-18 0 -30 -7 -8 -18 -15 -25 -15 -7 0 -18 7 -25 15 -10 12 -10 18 0 30 7 8 18
15 25 15 7 0 18 -7 25 -15z m-775 -155 c4 -6 -18 -10 -59 -10 -36 0 -68 5 -71
10 -4 6 18 10 59 10 36 0 68 -4 71 -10z"/>
<path d="M1490 1576 c0 -171 4 -266 10 -266 6 0 10 93 10 259 0 163 -4 262
-10 266 -7 4 -10 -85 -10 -259z"/>
<path d="M2473 1546 c-59 -19 -104 -49 -152 -101 -76 -83 -42 -92 39 -10 76
77 125 99 225 99 102 1 172 -29 247 -106 l51 -53 -24 44 c-27 49 -63 82 -123
113 -52 27 -199 35 -263 14z"/>
</g>
</svg>
